<mxfile host="65bd71144e">
    <diagram name="Overview" id="UPj5rX8PiksDiOr_ZrLQ">
        <mxGraphModel dx="2702" dy="1126" grid="1" gridSize="10" guides="1" tooltips="1" connect="1" arrows="1" fold="1" page="1" pageScale="1" pageWidth="850" pageHeight="1100" math="0" shadow="0">
            <root>
                <mxCell id="0"/>
                <mxCell id="1" parent="0"/>
                <mxCell id="xeUTUbcLX90DTTEaVlK8-42" value="" style="group" parent="1" vertex="1" connectable="0">
                    <mxGeometry x="40" y="50" width="690" height="290" as="geometry"/>
                </mxCell>
                <mxCell id="xeUTUbcLX90DTTEaVlK8-39" value="" style="group;strokeColor=default;dashed=1;dashPattern=8 8;perimeterSpacing=0;rounded=0;container=0;" parent="xeUTUbcLX90DTTEaVlK8-42" vertex="1" connectable="0">
                    <mxGeometry width="690" height="290" as="geometry"/>
                </mxCell>
                <mxCell id="xeUTUbcLX90DTTEaVlK8-40" value="Group management" style="text;html=1;align=left;verticalAlign=top;whiteSpace=wrap;rounded=0;labelBackgroundColor=default;" parent="xeUTUbcLX90DTTEaVlK8-42" vertex="1">
                    <mxGeometry width="190" height="60" as="geometry"/>
                </mxCell>
                <mxCell id="xeUTUbcLX90DTTEaVlK8-41" value="" style="group" parent="xeUTUbcLX90DTTEaVlK8-42" vertex="1" connectable="0">
                    <mxGeometry x="10" y="10" width="670" height="270" as="geometry"/>
                </mxCell>
                <mxCell id="xeUTUbcLX90DTTEaVlK8-10" value="" style="group" parent="xeUTUbcLX90DTTEaVlK8-41" vertex="1" connectable="0">
                    <mxGeometry y="150" width="80" height="120" as="geometry"/>
                </mxCell>
                <mxCell id="xeUTUbcLX90DTTEaVlK8-2" value="" style="rounded=0;whiteSpace=wrap;html=1;fillColor=#dae8fc;strokeColor=#6c8ebf;" parent="xeUTUbcLX90DTTEaVlK8-10" vertex="1">
                    <mxGeometry width="80" height="120" as="geometry"/>
                </mxCell>
                <mxCell id="xeUTUbcLX90DTTEaVlK8-1" value="" style="image;html=1;image=img/lib/clip_art/telecommunication/iPhone_128x128.png" parent="xeUTUbcLX90DTTEaVlK8-10" vertex="1">
                    <mxGeometry y="30" width="80" height="80" as="geometry"/>
                </mxCell>
                <mxCell id="xeUTUbcLX90DTTEaVlK8-9" value="'Studio' phone" style="text;html=1;align=center;verticalAlign=middle;whiteSpace=wrap;rounded=0;" parent="xeUTUbcLX90DTTEaVlK8-10" vertex="1">
                    <mxGeometry width="80" height="30" as="geometry"/>
                </mxCell>
                <mxCell id="xeUTUbcLX90DTTEaVlK8-15" value="" style="group" parent="xeUTUbcLX90DTTEaVlK8-41" vertex="1" connectable="0">
                    <mxGeometry x="590" y="150" width="80" height="120" as="geometry"/>
                </mxCell>
                <mxCell id="xeUTUbcLX90DTTEaVlK8-12" value="" style="rounded=0;whiteSpace=wrap;html=1;fillColor=#fff2cc;strokeColor=#d6b656;" parent="xeUTUbcLX90DTTEaVlK8-15" vertex="1">
                    <mxGeometry width="80" height="120" as="geometry"/>
                </mxCell>
                <mxCell id="xeUTUbcLX90DTTEaVlK8-13" value="" style="image;html=1;image=img/lib/clip_art/telecommunication/iPhone_128x128.png" parent="xeUTUbcLX90DTTEaVlK8-15" vertex="1">
                    <mxGeometry y="30" width="80" height="80" as="geometry"/>
                </mxCell>
                <mxCell id="xeUTUbcLX90DTTEaVlK8-14" value="'Recording' phone" style="text;html=1;align=center;verticalAlign=middle;whiteSpace=wrap;rounded=0;" parent="xeUTUbcLX90DTTEaVlK8-15" vertex="1">
                    <mxGeometry width="80" height="30" as="geometry"/>
                </mxCell>
                <mxCell id="xeUTUbcLX90DTTEaVlK8-29" value="" style="group;fillColor=#e1d5e7;strokeColor=#9673a6;" parent="xeUTUbcLX90DTTEaVlK8-41" vertex="1" connectable="0">
                    <mxGeometry x="230" y="160" width="170" height="110" as="geometry"/>
                </mxCell>
                <mxCell id="xeUTUbcLX90DTTEaVlK8-17" value="" style="rounded=0;whiteSpace=wrap;html=1;fillColor=#e1d5e7;strokeColor=#9673a6;" parent="xeUTUbcLX90DTTEaVlK8-29" vertex="1">
                    <mxGeometry width="170" height="110" as="geometry"/>
                </mxCell>
                <mxCell id="xeUTUbcLX90DTTEaVlK8-19" value="Group of phones in Wifi-Direct" style="text;html=1;align=center;verticalAlign=middle;whiteSpace=wrap;rounded=0;" parent="xeUTUbcLX90DTTEaVlK8-29" vertex="1">
                    <mxGeometry width="170" height="20" as="geometry"/>
                </mxCell>
                <mxCell id="xeUTUbcLX90DTTEaVlK8-26" value="" style="image;html=1;image=img/lib/clip_art/telecommunication/iPhone_128x128.png" parent="xeUTUbcLX90DTTEaVlK8-29" vertex="1">
                    <mxGeometry x="10" y="20" width="50" height="80" as="geometry"/>
                </mxCell>
                <mxCell id="xeUTUbcLX90DTTEaVlK8-27" value="" style="image;html=1;image=img/lib/clip_art/telecommunication/iPhone_128x128.png" parent="xeUTUbcLX90DTTEaVlK8-29" vertex="1">
                    <mxGeometry x="60" y="20" width="50" height="80" as="geometry"/>
                </mxCell>
                <mxCell id="xeUTUbcLX90DTTEaVlK8-28" value="" style="image;html=1;image=img/lib/clip_art/telecommunication/iPhone_128x128.png" parent="xeUTUbcLX90DTTEaVlK8-29" vertex="1">
                    <mxGeometry x="110" y="20" width="50" height="80" as="geometry"/>
                </mxCell>
                <object placeholders="1" c4Type="Relationship" c4Technology="FlutterP2pConnection" c4Description="Creates a group" label="&lt;div style=&quot;text-align: left&quot;&gt;&lt;div style=&quot;text-align: center&quot;&gt;&lt;b&gt;%c4Description%&lt;/b&gt;&lt;/div&gt;&lt;div style=&quot;text-align: center&quot;&gt;[%c4Technology%]&lt;/div&gt;&lt;/div&gt;" id="xeUTUbcLX90DTTEaVlK8-6">
                    <mxCell style="endArrow=blockThin;html=1;fontSize=10;fontColor=#404040;strokeWidth=1;endFill=1;strokeColor=#828282;elbow=vertical;metaEdit=1;endSize=14;startSize=14;jumpStyle=arc;jumpSize=16;rounded=0;edgeStyle=orthogonalEdgeStyle;exitX=1;exitY=0.5;exitDx=0;exitDy=0;" parent="xeUTUbcLX90DTTEaVlK8-41" source="xeUTUbcLX90DTTEaVlK8-1" target="xeUTUbcLX90DTTEaVlK8-17" edge="1">
                        <mxGeometry width="240" relative="1" as="geometry">
                            <mxPoint x="150" y="210" as="sourcePoint"/>
                            <mxPoint x="280" y="220" as="targetPoint"/>
                        </mxGeometry>
                    </mxCell>
                </object>
                <object placeholders="1" c4Type="Relationship" c4Technology="FlutterP2pConnection" c4Description="Is able to join/leave" label="&lt;div style=&quot;text-align: left&quot;&gt;&lt;div style=&quot;text-align: center&quot;&gt;&lt;b&gt;%c4Description%&lt;/b&gt;&lt;/div&gt;&lt;div style=&quot;text-align: center&quot;&gt;[%c4Technology%]&lt;/div&gt;&lt;/div&gt;" id="xeUTUbcLX90DTTEaVlK8-31">
                    <mxCell style="endArrow=blockThin;html=1;fontSize=10;fontColor=#404040;strokeWidth=1;endFill=1;strokeColor=#828282;elbow=vertical;metaEdit=1;endSize=14;startSize=14;jumpStyle=arc;jumpSize=16;rounded=0;edgeStyle=orthogonalEdgeStyle;" parent="xeUTUbcLX90DTTEaVlK8-41" source="xeUTUbcLX90DTTEaVlK8-12" target="xeUTUbcLX90DTTEaVlK8-17" edge="1">
                        <mxGeometry x="-0.0025" width="240" relative="1" as="geometry">
                            <mxPoint x="230" y="420" as="sourcePoint"/>
                            <mxPoint x="470" y="420" as="targetPoint"/>
                            <mxPoint as="offset"/>
                        </mxGeometry>
                    </mxCell>
                </object>
                <mxCell id="xeUTUbcLX90DTTEaVlK8-33" value="" style="group" parent="xeUTUbcLX90DTTEaVlK8-41" vertex="1" connectable="0">
                    <mxGeometry x="590" width="80" height="120" as="geometry"/>
                </mxCell>
                <mxCell id="xeUTUbcLX90DTTEaVlK8-34" value="" style="rounded=0;whiteSpace=wrap;html=1;fillColor=#fff2cc;strokeColor=#d6b656;" parent="xeUTUbcLX90DTTEaVlK8-33" vertex="1">
                    <mxGeometry width="80" height="120" as="geometry"/>
                </mxCell>
                <mxCell id="xeUTUbcLX90DTTEaVlK8-35" value="" style="image;html=1;image=img/lib/clip_art/telecommunication/iPhone_128x128.png" parent="xeUTUbcLX90DTTEaVlK8-33" vertex="1">
                    <mxGeometry y="30" width="80" height="80" as="geometry"/>
                </mxCell>
                <mxCell id="xeUTUbcLX90DTTEaVlK8-36" value="'Recording' phone" style="text;html=1;align=center;verticalAlign=middle;whiteSpace=wrap;rounded=0;" parent="xeUTUbcLX90DTTEaVlK8-33" vertex="1">
                    <mxGeometry width="80" height="30" as="geometry"/>
                </mxCell>
                <object placeholders="1" c4Type="Relationship" c4Technology="FlutterP2pConnection" c4Description="Is able to join/leave" label="&lt;div style=&quot;text-align: left&quot;&gt;&lt;div style=&quot;text-align: center&quot;&gt;&lt;b&gt;%c4Description%&lt;/b&gt;&lt;/div&gt;&lt;div style=&quot;text-align: center&quot;&gt;[%c4Technology%]&lt;/div&gt;&lt;/div&gt;" id="xeUTUbcLX90DTTEaVlK8-37">
                    <mxCell style="endArrow=blockThin;html=1;fontSize=10;fontColor=#404040;strokeWidth=1;endFill=1;strokeColor=#828282;elbow=vertical;metaEdit=1;endSize=14;startSize=14;jumpStyle=arc;jumpSize=16;rounded=0;edgeStyle=orthogonalEdgeStyle;" parent="xeUTUbcLX90DTTEaVlK8-41" source="xeUTUbcLX90DTTEaVlK8-34" target="xeUTUbcLX90DTTEaVlK8-17" edge="1">
                        <mxGeometry x="-0.0025" width="240" relative="1" as="geometry">
                            <mxPoint x="600" y="230" as="sourcePoint"/>
                            <mxPoint x="410" y="225" as="targetPoint"/>
                            <mxPoint as="offset"/>
                        </mxGeometry>
                    </mxCell>
                </object>
                <mxCell id="xeUTUbcLX90DTTEaVlK8-70" value="" style="group" parent="1" vertex="1" connectable="0">
                    <mxGeometry x="-20" y="360" width="750" height="290" as="geometry"/>
                </mxCell>
                <mxCell id="xeUTUbcLX90DTTEaVlK8-44" value="" style="group;strokeColor=default;dashed=1;dashPattern=8 8;perimeterSpacing=0;rounded=0;container=0;" parent="xeUTUbcLX90DTTEaVlK8-70" vertex="1" connectable="0">
                    <mxGeometry width="750" height="290" as="geometry"/>
                </mxCell>
                <mxCell id="xeUTUbcLX90DTTEaVlK8-45" value="Recording management" style="text;html=1;align=left;verticalAlign=top;whiteSpace=wrap;rounded=0;labelBackgroundColor=default;" parent="xeUTUbcLX90DTTEaVlK8-70" vertex="1">
                    <mxGeometry width="206.52173913043478" height="60" as="geometry"/>
                </mxCell>
                <mxCell id="xeUTUbcLX90DTTEaVlK8-47" value="" style="group" parent="xeUTUbcLX90DTTEaVlK8-70" vertex="1" connectable="0">
                    <mxGeometry x="10.869565217391305" y="160" width="86.95652173913044" height="120" as="geometry"/>
                </mxCell>
                <mxCell id="xeUTUbcLX90DTTEaVlK8-48" value="" style="rounded=0;whiteSpace=wrap;html=1;fillColor=#dae8fc;strokeColor=#6c8ebf;" parent="xeUTUbcLX90DTTEaVlK8-47" vertex="1">
                    <mxGeometry width="86.95652173913044" height="120" as="geometry"/>
                </mxCell>
                <mxCell id="xeUTUbcLX90DTTEaVlK8-49" value="" style="image;html=1;image=img/lib/clip_art/telecommunication/iPhone_128x128.png" parent="xeUTUbcLX90DTTEaVlK8-47" vertex="1">
                    <mxGeometry y="30" width="86.95652173913044" height="80" as="geometry"/>
                </mxCell>
                <mxCell id="xeUTUbcLX90DTTEaVlK8-50" value="'Studio' phone" style="text;html=1;align=center;verticalAlign=middle;whiteSpace=wrap;rounded=0;" parent="xeUTUbcLX90DTTEaVlK8-47" vertex="1">
                    <mxGeometry width="86.95652173913044" height="30" as="geometry"/>
                </mxCell>
                <mxCell id="xeUTUbcLX90DTTEaVlK8-51" value="" style="group" parent="xeUTUbcLX90DTTEaVlK8-70" vertex="1" connectable="0">
                    <mxGeometry x="652.1739130434783" y="160" width="86.95652173913044" height="120" as="geometry"/>
                </mxCell>
                <mxCell id="xeUTUbcLX90DTTEaVlK8-52" value="" style="rounded=0;whiteSpace=wrap;html=1;fillColor=#fff2cc;strokeColor=#d6b656;" parent="xeUTUbcLX90DTTEaVlK8-51" vertex="1">
                    <mxGeometry width="86.95652173913044" height="120" as="geometry"/>
                </mxCell>
                <mxCell id="xeUTUbcLX90DTTEaVlK8-53" value="" style="image;html=1;image=img/lib/clip_art/telecommunication/iPhone_128x128.png" parent="xeUTUbcLX90DTTEaVlK8-51" vertex="1">
                    <mxGeometry y="30" width="86.95652173913044" height="80" as="geometry"/>
                </mxCell>
                <mxCell id="xeUTUbcLX90DTTEaVlK8-54" value="'Recording' phone" style="text;html=1;align=center;verticalAlign=middle;whiteSpace=wrap;rounded=0;" parent="xeUTUbcLX90DTTEaVlK8-51" vertex="1">
                    <mxGeometry width="86.95652173913044" height="30" as="geometry"/>
                </mxCell>
                <mxCell id="xeUTUbcLX90DTTEaVlK8-55" value="" style="group;fillColor=#e1d5e7;strokeColor=#9673a6;" parent="xeUTUbcLX90DTTEaVlK8-70" vertex="1" connectable="0">
                    <mxGeometry x="260.8695652173913" y="170" width="184.78260869565216" height="110" as="geometry"/>
                </mxCell>
                <mxCell id="xeUTUbcLX90DTTEaVlK8-56" value="" style="rounded=0;whiteSpace=wrap;html=1;fillColor=#e1d5e7;strokeColor=#9673a6;" parent="xeUTUbcLX90DTTEaVlK8-55" vertex="1">
                    <mxGeometry width="184.78260869565216" height="110" as="geometry"/>
                </mxCell>
                <mxCell id="xeUTUbcLX90DTTEaVlK8-57" value="Group of phones in Wifi-Direct" style="text;html=1;align=center;verticalAlign=middle;whiteSpace=wrap;rounded=0;" parent="xeUTUbcLX90DTTEaVlK8-55" vertex="1">
                    <mxGeometry width="184.78260869565216" height="20" as="geometry"/>
                </mxCell>
                <mxCell id="xeUTUbcLX90DTTEaVlK8-58" value="" style="image;html=1;image=img/lib/clip_art/telecommunication/iPhone_128x128.png" parent="xeUTUbcLX90DTTEaVlK8-55" vertex="1">
                    <mxGeometry x="10.869565217391305" y="20" width="54.347826086956516" height="80" as="geometry"/>
                </mxCell>
                <mxCell id="xeUTUbcLX90DTTEaVlK8-59" value="" style="image;html=1;image=img/lib/clip_art/telecommunication/iPhone_128x128.png" parent="xeUTUbcLX90DTTEaVlK8-55" vertex="1">
                    <mxGeometry x="65.21739130434783" y="20" width="54.347826086956516" height="80" as="geometry"/>
                </mxCell>
                <mxCell id="xeUTUbcLX90DTTEaVlK8-60" value="" style="image;html=1;image=img/lib/clip_art/telecommunication/iPhone_128x128.png" parent="xeUTUbcLX90DTTEaVlK8-55" vertex="1">
                    <mxGeometry x="119.56521739130434" y="20" width="54.347826086956516" height="80" as="geometry"/>
                </mxCell>
                <object placeholders="1" c4Type="Relationship" c4Technology="FlutterP2pConnection" c4Description="Sends a request to start/stop&#10;recording with a timestamp" label="&lt;div style=&quot;text-align: left&quot;&gt;&lt;div style=&quot;text-align: center&quot;&gt;&lt;b&gt;%c4Description%&lt;/b&gt;&lt;/div&gt;&lt;div style=&quot;text-align: center&quot;&gt;[%c4Technology%]&lt;/div&gt;&lt;/div&gt;" id="xeUTUbcLX90DTTEaVlK8-61">
                    <mxCell style="endArrow=blockThin;html=1;fontSize=10;fontColor=#404040;strokeWidth=1;endFill=1;strokeColor=#828282;elbow=vertical;metaEdit=1;endSize=14;startSize=14;jumpStyle=arc;jumpSize=16;rounded=0;edgeStyle=orthogonalEdgeStyle;exitX=1;exitY=0.5;exitDx=0;exitDy=0;" parent="xeUTUbcLX90DTTEaVlK8-70" source="xeUTUbcLX90DTTEaVlK8-49" target="xeUTUbcLX90DTTEaVlK8-56" edge="1">
                        <mxGeometry x="0.032" y="7" width="240" relative="1" as="geometry">
                            <mxPoint x="173.91304347826087" y="220" as="sourcePoint"/>
                            <mxPoint x="315.2173913043478" y="230" as="targetPoint"/>
                            <mxPoint x="-5" y="2" as="offset"/>
                        </mxGeometry>
                    </mxCell>
                </object>
                <object placeholders="1" c4Type="Relationship" c4Technology="FlutterP2pConnection" c4Description="Receives request,&#10;starts/stops recording&#10;at timestamp" label="&lt;div style=&quot;text-align: left&quot;&gt;&lt;div style=&quot;text-align: center&quot;&gt;&lt;b&gt;%c4Description%&lt;/b&gt;&lt;/div&gt;&lt;div style=&quot;text-align: center&quot;&gt;[%c4Technology%]&lt;/div&gt;&lt;/div&gt;" id="xeUTUbcLX90DTTEaVlK8-62">
                    <mxCell style="endArrow=none;html=1;fontSize=10;fontColor=#404040;strokeWidth=1;endFill=0;strokeColor=#828282;elbow=vertical;metaEdit=1;endSize=14;startSize=14;jumpStyle=arc;jumpSize=16;rounded=0;edgeStyle=orthogonalEdgeStyle;startArrow=blockThin;startFill=1;" parent="xeUTUbcLX90DTTEaVlK8-70" source="xeUTUbcLX90DTTEaVlK8-52" target="xeUTUbcLX90DTTEaVlK8-56" edge="1">
                        <mxGeometry x="-0.0028" width="240" relative="1" as="geometry">
                            <mxPoint x="260.8695652173913" y="430" as="sourcePoint"/>
                            <mxPoint x="521.7391304347826" y="430" as="targetPoint"/>
                            <mxPoint as="offset"/>
                        </mxGeometry>
                    </mxCell>
                </object>
                <mxCell id="xeUTUbcLX90DTTEaVlK8-63" value="" style="group" parent="xeUTUbcLX90DTTEaVlK8-70" vertex="1" connectable="0">
                    <mxGeometry x="652.1739130434783" y="10" width="86.95652173913044" height="120" as="geometry"/>
                </mxCell>
                <mxCell id="xeUTUbcLX90DTTEaVlK8-64" value="" style="rounded=0;whiteSpace=wrap;html=1;fillColor=#fff2cc;strokeColor=#d6b656;" parent="xeUTUbcLX90DTTEaVlK8-63" vertex="1">
                    <mxGeometry width="86.95652173913044" height="120" as="geometry"/>
                </mxCell>
                <mxCell id="xeUTUbcLX90DTTEaVlK8-65" value="" style="image;html=1;image=img/lib/clip_art/telecommunication/iPhone_128x128.png" parent="xeUTUbcLX90DTTEaVlK8-63" vertex="1">
                    <mxGeometry y="30" width="86.95652173913044" height="80" as="geometry"/>
                </mxCell>
                <mxCell id="xeUTUbcLX90DTTEaVlK8-66" value="'Recording' phone" style="text;html=1;align=center;verticalAlign=middle;whiteSpace=wrap;rounded=0;" parent="xeUTUbcLX90DTTEaVlK8-63" vertex="1">
                    <mxGeometry width="86.95652173913044" height="30" as="geometry"/>
                </mxCell>
                <object placeholders="1" c4Type="Relationship" c4Technology="FlutterP2pConnection" c4Description="Receives request, starts/stops recording at timestamp" label="&lt;div style=&quot;text-align: left&quot;&gt;&lt;div style=&quot;text-align: center&quot;&gt;&lt;b&gt;%c4Description%&lt;/b&gt;&lt;/div&gt;&lt;div style=&quot;text-align: center&quot;&gt;[%c4Technology%]&lt;/div&gt;&lt;/div&gt;" id="xeUTUbcLX90DTTEaVlK8-67">
                    <mxCell style="endArrow=none;html=1;fontSize=10;fontColor=#404040;strokeWidth=1;endFill=0;strokeColor=#828282;elbow=vertical;metaEdit=1;endSize=14;startSize=14;jumpStyle=arc;jumpSize=16;rounded=0;edgeStyle=orthogonalEdgeStyle;startArrow=blockThin;startFill=1;" parent="xeUTUbcLX90DTTEaVlK8-70" source="xeUTUbcLX90DTTEaVlK8-64" target="xeUTUbcLX90DTTEaVlK8-56" edge="1">
                        <mxGeometry x="-0.2533" width="240" relative="1" as="geometry">
                            <mxPoint x="663.0434782608695" y="240" as="sourcePoint"/>
                            <mxPoint x="456.52173913043475" y="235" as="targetPoint"/>
                            <mxPoint as="offset"/>
                        </mxGeometry>
                    </mxCell>
                </object>
                <mxCell id="xeUTUbcLX90DTTEaVlK8-146" value="" style="group" parent="1" vertex="1" connectable="0">
                    <mxGeometry x="-170" y="670" width="900" height="290" as="geometry"/>
                </mxCell>
                <mxCell id="xeUTUbcLX90DTTEaVlK8-95" value="" style="group;strokeColor=default;dashed=1;dashPattern=8 8;perimeterSpacing=0;rounded=0;container=0;" parent="xeUTUbcLX90DTTEaVlK8-146" vertex="1" connectable="0">
                    <mxGeometry width="900" height="290" as="geometry"/>
                </mxCell>
                <mxCell id="xeUTUbcLX90DTTEaVlK8-96" value="File management" style="text;html=1;align=left;verticalAlign=top;whiteSpace=wrap;rounded=0;labelBackgroundColor=default;" parent="xeUTUbcLX90DTTEaVlK8-146" vertex="1">
                    <mxGeometry width="170" height="60" as="geometry"/>
                </mxCell>
                <mxCell id="xeUTUbcLX90DTTEaVlK8-97" value="" style="group" parent="xeUTUbcLX90DTTEaVlK8-146" vertex="1" connectable="0">
                    <mxGeometry x="210" y="160" width="80" height="120" as="geometry"/>
                </mxCell>
                <mxCell id="xeUTUbcLX90DTTEaVlK8-98" value="" style="rounded=0;whiteSpace=wrap;html=1;fillColor=#dae8fc;strokeColor=#6c8ebf;" parent="xeUTUbcLX90DTTEaVlK8-97" vertex="1">
                    <mxGeometry width="80" height="120" as="geometry"/>
                </mxCell>
                <mxCell id="xeUTUbcLX90DTTEaVlK8-99" value="" style="image;html=1;image=img/lib/clip_art/telecommunication/iPhone_128x128.png" parent="xeUTUbcLX90DTTEaVlK8-97" vertex="1">
                    <mxGeometry y="30" width="80" height="80" as="geometry"/>
                </mxCell>
                <mxCell id="xeUTUbcLX90DTTEaVlK8-100" value="'Studio' phone" style="text;html=1;align=center;verticalAlign=middle;whiteSpace=wrap;rounded=0;" parent="xeUTUbcLX90DTTEaVlK8-97" vertex="1">
                    <mxGeometry width="80" height="30" as="geometry"/>
                </mxCell>
                <mxCell id="xeUTUbcLX90DTTEaVlK8-101" value="" style="group" parent="xeUTUbcLX90DTTEaVlK8-146" vertex="1" connectable="0">
                    <mxGeometry x="810" y="160" width="80" height="120" as="geometry"/>
                </mxCell>
                <mxCell id="xeUTUbcLX90DTTEaVlK8-102" value="" style="rounded=0;whiteSpace=wrap;html=1;fillColor=#fff2cc;strokeColor=#d6b656;" parent="xeUTUbcLX90DTTEaVlK8-101" vertex="1">
                    <mxGeometry width="80" height="120" as="geometry"/>
                </mxCell>
                <mxCell id="xeUTUbcLX90DTTEaVlK8-103" value="" style="image;html=1;image=img/lib/clip_art/telecommunication/iPhone_128x128.png" parent="xeUTUbcLX90DTTEaVlK8-101" vertex="1">
                    <mxGeometry y="30" width="80" height="80" as="geometry"/>
                </mxCell>
                <mxCell id="xeUTUbcLX90DTTEaVlK8-104" value="'Recording' phone" style="text;html=1;align=center;verticalAlign=middle;whiteSpace=wrap;rounded=0;" parent="xeUTUbcLX90DTTEaVlK8-101" vertex="1">
                    <mxGeometry width="80" height="30" as="geometry"/>
                </mxCell>
                <mxCell id="xeUTUbcLX90DTTEaVlK8-105" value="" style="group;fillColor=#e1d5e7;strokeColor=#9673a6;" parent="xeUTUbcLX90DTTEaVlK8-146" vertex="1" connectable="0">
                    <mxGeometry x="450" y="170" width="170" height="110" as="geometry"/>
                </mxCell>
                <mxCell id="xeUTUbcLX90DTTEaVlK8-106" value="" style="rounded=0;whiteSpace=wrap;html=1;fillColor=#e1d5e7;strokeColor=#9673a6;" parent="xeUTUbcLX90DTTEaVlK8-105" vertex="1">
                    <mxGeometry width="170" height="110" as="geometry"/>
                </mxCell>
                <mxCell id="xeUTUbcLX90DTTEaVlK8-107" value="Group of phones in Wifi-Direct" style="text;html=1;align=center;verticalAlign=middle;whiteSpace=wrap;rounded=0;" parent="xeUTUbcLX90DTTEaVlK8-105" vertex="1">
                    <mxGeometry width="170" height="20" as="geometry"/>
                </mxCell>
                <mxCell id="xeUTUbcLX90DTTEaVlK8-108" value="" style="image;html=1;image=img/lib/clip_art/telecommunication/iPhone_128x128.png" parent="xeUTUbcLX90DTTEaVlK8-105" vertex="1">
                    <mxGeometry x="10" y="20" width="50" height="80" as="geometry"/>
                </mxCell>
                <mxCell id="xeUTUbcLX90DTTEaVlK8-109" value="" style="image;html=1;image=img/lib/clip_art/telecommunication/iPhone_128x128.png" parent="xeUTUbcLX90DTTEaVlK8-105" vertex="1">
                    <mxGeometry x="60" y="20" width="50" height="80" as="geometry"/>
                </mxCell>
                <mxCell id="xeUTUbcLX90DTTEaVlK8-110" value="" style="image;html=1;image=img/lib/clip_art/telecommunication/iPhone_128x128.png" parent="xeUTUbcLX90DTTEaVlK8-105" vertex="1">
                    <mxGeometry x="110" y="20" width="50" height="80" as="geometry"/>
                </mxCell>
                <object placeholders="1" c4Type="Relationship" c4Technology="FlutterP2pConnection" c4Description="Receives audio files" label="&lt;div style=&quot;text-align: left&quot;&gt;&lt;div style=&quot;text-align: center&quot;&gt;&lt;b&gt;%c4Description%&lt;/b&gt;&lt;/div&gt;&lt;div style=&quot;text-align: center&quot;&gt;[%c4Technology%]&lt;/div&gt;&lt;/div&gt;" id="xeUTUbcLX90DTTEaVlK8-111">
                    <mxCell style="endArrow=blockThin;html=1;fontSize=10;fontColor=#404040;strokeWidth=1;endFill=1;strokeColor=#828282;elbow=vertical;metaEdit=1;endSize=14;startSize=14;jumpStyle=arc;jumpSize=16;rounded=0;edgeStyle=orthogonalEdgeStyle;exitX=1;exitY=0.5;exitDx=0;exitDy=0;" parent="xeUTUbcLX90DTTEaVlK8-146" source="xeUTUbcLX90DTTEaVlK8-99" target="xeUTUbcLX90DTTEaVlK8-106" edge="1">
                        <mxGeometry x="0.032" y="7" width="240" relative="1" as="geometry">
                            <mxPoint x="370" y="220" as="sourcePoint"/>
                            <mxPoint x="500" y="230" as="targetPoint"/>
                            <mxPoint x="-5" y="2" as="offset"/>
                        </mxGeometry>
                    </mxCell>
                </object>
                <object placeholders="1" c4Type="Relationship" c4Technology="FlutterP2pConnection" c4Description="Sends recorded data" label="&lt;div style=&quot;text-align: left&quot;&gt;&lt;div style=&quot;text-align: center&quot;&gt;&lt;b&gt;%c4Description%&lt;/b&gt;&lt;/div&gt;&lt;div style=&quot;text-align: center&quot;&gt;[%c4Technology%]&lt;/div&gt;&lt;/div&gt;" id="xeUTUbcLX90DTTEaVlK8-112">
                    <mxCell style="endArrow=none;html=1;fontSize=10;fontColor=#404040;strokeWidth=1;endFill=0;strokeColor=#828282;elbow=vertical;metaEdit=1;endSize=14;startSize=14;jumpStyle=arc;jumpSize=16;rounded=0;edgeStyle=orthogonalEdgeStyle;startArrow=blockThin;startFill=1;" parent="xeUTUbcLX90DTTEaVlK8-146" source="xeUTUbcLX90DTTEaVlK8-102" target="xeUTUbcLX90DTTEaVlK8-106" edge="1">
                        <mxGeometry x="-0.0028" width="240" relative="1" as="geometry">
                            <mxPoint x="450" y="430" as="sourcePoint"/>
                            <mxPoint x="690" y="430" as="targetPoint"/>
                            <mxPoint as="offset"/>
                        </mxGeometry>
                    </mxCell>
                </object>
                <mxCell id="xeUTUbcLX90DTTEaVlK8-113" value="" style="group" parent="xeUTUbcLX90DTTEaVlK8-146" vertex="1" connectable="0">
                    <mxGeometry x="810" y="10" width="80" height="120" as="geometry"/>
                </mxCell>
                <mxCell id="xeUTUbcLX90DTTEaVlK8-114" value="" style="rounded=0;whiteSpace=wrap;html=1;fillColor=#fff2cc;strokeColor=#d6b656;" parent="xeUTUbcLX90DTTEaVlK8-113" vertex="1">
                    <mxGeometry width="80" height="120" as="geometry"/>
                </mxCell>
                <mxCell id="xeUTUbcLX90DTTEaVlK8-115" value="" style="image;html=1;image=img/lib/clip_art/telecommunication/iPhone_128x128.png" parent="xeUTUbcLX90DTTEaVlK8-113" vertex="1">
                    <mxGeometry y="30" width="80" height="80" as="geometry"/>
                </mxCell>
                <mxCell id="xeUTUbcLX90DTTEaVlK8-116" value="'Recording' phone" style="text;html=1;align=center;verticalAlign=middle;whiteSpace=wrap;rounded=0;" parent="xeUTUbcLX90DTTEaVlK8-113" vertex="1">
                    <mxGeometry width="80" height="30" as="geometry"/>
                </mxCell>
                <object placeholders="1" c4Type="Relationship" c4Technology="FlutterP2pConnection" c4Description="Receives request, starts recording at timestamp" label="&lt;div style=&quot;text-align: left&quot;&gt;&lt;div style=&quot;text-align: center&quot;&gt;&lt;b&gt;%c4Description%&lt;/b&gt;&lt;/div&gt;&lt;div style=&quot;text-align: center&quot;&gt;[%c4Technology%]&lt;/div&gt;&lt;/div&gt;" id="xeUTUbcLX90DTTEaVlK8-117">
                    <mxCell style="endArrow=none;html=1;fontSize=10;fontColor=#404040;strokeWidth=1;endFill=0;strokeColor=#828282;elbow=vertical;metaEdit=1;endSize=14;startSize=14;jumpStyle=arc;jumpSize=16;rounded=0;edgeStyle=orthogonalEdgeStyle;startArrow=blockThin;startFill=1;" parent="xeUTUbcLX90DTTEaVlK8-146" source="xeUTUbcLX90DTTEaVlK8-114" target="xeUTUbcLX90DTTEaVlK8-106" edge="1">
                        <mxGeometry x="-0.2533" width="240" relative="1" as="geometry">
                            <mxPoint x="820" y="240" as="sourcePoint"/>
                            <mxPoint x="630" y="235" as="targetPoint"/>
                            <mxPoint as="offset"/>
                        </mxGeometry>
                    </mxCell>
                </object>
                <mxCell id="xeUTUbcLX90DTTEaVlK8-143" value="" style="image;html=1;image=img/lib/clip_art/general/Full_Folder_128x128.png" parent="xeUTUbcLX90DTTEaVlK8-146" vertex="1">
                    <mxGeometry x="10" y="190" width="80" height="80" as="geometry"/>
                </mxCell>
                <object placeholders="1" c4Type="Relationship" c4Technology="FFmpeg" c4Description="Merges audio files" label="&lt;div style=&quot;text-align: left&quot;&gt;&lt;div style=&quot;text-align: center&quot;&gt;&lt;b&gt;%c4Description%&lt;/b&gt;&lt;/div&gt;&lt;div style=&quot;text-align: center&quot;&gt;[%c4Technology%]&lt;/div&gt;&lt;/div&gt;" id="xeUTUbcLX90DTTEaVlK8-144">
                    <mxCell style="endArrow=blockThin;html=1;fontSize=10;fontColor=#404040;strokeWidth=1;endFill=1;strokeColor=#828282;elbow=vertical;metaEdit=1;endSize=14;startSize=14;jumpStyle=arc;jumpSize=16;rounded=0;edgeStyle=orthogonalEdgeStyle;" parent="xeUTUbcLX90DTTEaVlK8-146" source="xeUTUbcLX90DTTEaVlK8-99" target="xeUTUbcLX90DTTEaVlK8-143" edge="1">
                        <mxGeometry width="240" relative="1" as="geometry">
                            <mxPoint x="210" y="330" as="sourcePoint"/>
                            <mxPoint x="450" y="330" as="targetPoint"/>
                        </mxGeometry>
                    </mxCell>
                </object>
                <object placeholders="1" c4Type="Relationship" c4Technology="FFmpeg" c4Description="Returns merged audio file" label="&lt;div style=&quot;text-align: left&quot;&gt;&lt;div style=&quot;text-align: center&quot;&gt;&lt;b&gt;%c4Description%&lt;/b&gt;&lt;/div&gt;&lt;div style=&quot;text-align: center&quot;&gt;[%c4Technology%]&lt;/div&gt;&lt;/div&gt;" id="xeUTUbcLX90DTTEaVlK8-145">
                    <mxCell style="endArrow=blockThin;html=1;fontSize=10;fontColor=#404040;strokeWidth=1;endFill=1;strokeColor=#828282;elbow=vertical;metaEdit=1;endSize=14;startSize=14;jumpStyle=arc;jumpSize=16;rounded=0;edgeStyle=orthogonalEdgeStyle;" parent="xeUTUbcLX90DTTEaVlK8-146" source="xeUTUbcLX90DTTEaVlK8-143" target="xeUTUbcLX90DTTEaVlK8-98" edge="1">
                        <mxGeometry width="240" relative="1" as="geometry">
                            <mxPoint x="100" y="380" as="sourcePoint"/>
                            <mxPoint x="340" y="380" as="targetPoint"/>
                            <Array as="points">
                                <mxPoint x="50" y="110"/>
                                <mxPoint x="250" y="110"/>
                            </Array>
                        </mxGeometry>
                    </mxCell>
                </object>
            </root>
        </mxGraphModel>
    </diagram>
    <diagram id="Zibwk40WXdtLtYavI2Nx" name="C4">
        <mxGraphModel dx="1852" dy="1126" grid="1" gridSize="10" guides="1" tooltips="1" connect="1" arrows="1" fold="1" page="1" pageScale="1" pageWidth="827" pageHeight="1169" math="0" shadow="0">
            <root>
                <mxCell id="0"/>
                <mxCell id="1" parent="0"/>
                <object placeholders="1" c4Name="Web-socket server" c4Type="Software System" c4Description="Mirrors all received web-socket messages back to all other connected clients" label="&lt;font style=&quot;font-size: 16px&quot;&gt;&lt;b&gt;%c4Name%&lt;/b&gt;&lt;/font&gt;&lt;div&gt;[%c4Type%]&lt;/div&gt;&lt;br&gt;&lt;div&gt;&lt;font style=&quot;font-size: 11px&quot;&gt;&lt;font color=&quot;#cccccc&quot;&gt;%c4Description%&lt;/font&gt;&lt;/div&gt;" id="3OLluuD3J4w9uFErKVHZ-2">
                    <mxCell style="rounded=1;whiteSpace=wrap;html=1;labelBackgroundColor=none;fillColor=#1061B0;fontColor=#ffffff;align=center;arcSize=10;strokeColor=#0D5091;metaEdit=1;resizable=0;points=[[0.25,0,0],[0.5,0,0],[0.75,0,0],[1,0.25,0],[1,0.5,0],[1,0.75,0],[0.75,1,0],[0.5,1,0],[0.25,1,0],[0,0.75,0],[0,0.5,0],[0,0.25,0]];" vertex="1" parent="1">
                        <mxGeometry x="89" y="709" width="240" height="120" as="geometry"/>
                    </mxCell>
                </object>
                <object placeholders="1" c4Name="Minimal audio files API" c4Type="Software System" c4Description="Allows for uploading/downloading files, also merges files." label="&lt;font style=&quot;font-size: 16px&quot;&gt;&lt;b&gt;%c4Name%&lt;/b&gt;&lt;/font&gt;&lt;div&gt;[%c4Type%]&lt;/div&gt;&lt;br&gt;&lt;div&gt;&lt;font style=&quot;font-size: 11px&quot;&gt;&lt;font color=&quot;#cccccc&quot;&gt;%c4Description%&lt;/font&gt;&lt;/div&gt;" id="3OLluuD3J4w9uFErKVHZ-3">
                    <mxCell style="rounded=1;whiteSpace=wrap;html=1;labelBackgroundColor=none;fillColor=#1061B0;fontColor=#ffffff;align=center;arcSize=10;strokeColor=#0D5091;metaEdit=1;resizable=0;points=[[0.25,0,0],[0.5,0,0],[0.75,0,0],[1,0.25,0],[1,0.5,0],[1,0.75,0],[0.75,1,0],[0.5,1,0],[0.25,1,0],[0,0.75,0],[0,0.5,0],[0,0.25,0]];" vertex="1" parent="1">
                        <mxGeometry x="99" y="399" width="240" height="120" as="geometry"/>
                    </mxCell>
                </object>
                <object placeholders="1" c4Name="'Microphone' device" c4Type="Person" c4Description="A device which is receiving commands from the web-socket to record/upload data." label="&lt;font style=&quot;font-size: 16px&quot;&gt;&lt;b&gt;%c4Name%&lt;/b&gt;&lt;/font&gt;&lt;div&gt;[%c4Type%]&lt;/div&gt;&lt;br&gt;&lt;div&gt;&lt;font style=&quot;font-size: 11px&quot;&gt;&lt;font color=&quot;#cccccc&quot;&gt;%c4Description%&lt;/font&gt;&lt;/div&gt;" id="3OLluuD3J4w9uFErKVHZ-4">
                    <mxCell style="html=1;fontSize=11;dashed=0;whiteSpace=wrap;fillColor=#083F75;strokeColor=#06315C;fontColor=#ffffff;shape=mxgraph.c4.person2;align=center;metaEdit=1;points=[[0.5,0,0],[1,0.5,0],[1,0.75,0],[0.75,1,0],[0.5,1,0],[0.25,1,0],[0,0.75,0],[0,0.5,0]];resizable=0;" vertex="1" parent="1">
                        <mxGeometry x="539" y="339" width="200" height="180" as="geometry"/>
                    </mxCell>
                </object>
                <object placeholders="1" c4Name="'Studio' device" c4Type="Person" c4Description="A device which is sending commands to the web-socket. Can request to receive uploaded audio-files." label="&lt;font style=&quot;font-size: 16px&quot;&gt;&lt;b&gt;%c4Name%&lt;/b&gt;&lt;/font&gt;&lt;div&gt;[%c4Type%]&lt;/div&gt;&lt;br&gt;&lt;div&gt;&lt;font style=&quot;font-size: 11px&quot;&gt;&lt;font color=&quot;#cccccc&quot;&gt;%c4Description%&lt;/font&gt;&lt;/div&gt;" id="3OLluuD3J4w9uFErKVHZ-5">
                    <mxCell style="html=1;fontSize=11;dashed=0;whiteSpace=wrap;fillColor=#083F75;strokeColor=#06315C;fontColor=#ffffff;shape=mxgraph.c4.person2;align=center;metaEdit=1;points=[[0.5,0,0],[1,0.5,0],[1,0.75,0],[0.75,1,0],[0.5,1,0],[0.25,1,0],[0,0.75,0],[0,0.5,0]];resizable=0;" vertex="1" parent="1">
                        <mxGeometry x="539" y="559" width="200" height="180" as="geometry"/>
                    </mxCell>
                </object>
                <object placeholders="1" c4Type="Relationship" c4Technology="WS" c4Description="Mirrors received &#10;commands to" label="&lt;div style=&quot;text-align: left&quot;&gt;&lt;div style=&quot;text-align: center&quot;&gt;&lt;b&gt;%c4Description%&lt;/b&gt;&lt;/div&gt;&lt;div style=&quot;text-align: center&quot;&gt;[%c4Technology%]&lt;/div&gt;&lt;/div&gt;" id="3OLluuD3J4w9uFErKVHZ-6">
                    <mxCell style="endArrow=blockThin;html=1;fontSize=10;fontColor=#404040;strokeWidth=1;endFill=1;strokeColor=#828282;elbow=vertical;metaEdit=1;endSize=14;startSize=14;jumpStyle=arc;jumpSize=16;rounded=0;edgeStyle=orthogonalEdgeStyle;entryX=0;entryY=0.75;entryDx=0;entryDy=0;entryPerimeter=0;" edge="1" parent="1" source="3OLluuD3J4w9uFErKVHZ-2" target="3OLluuD3J4w9uFErKVHZ-4">
                        <mxGeometry x="0.2475" width="240" relative="1" as="geometry">
                            <mxPoint x="479" y="539" as="sourcePoint"/>
                            <mxPoint x="719" y="539" as="targetPoint"/>
                            <mxPoint as="offset"/>
                        </mxGeometry>
                    </mxCell>
                </object>
                <object placeholders="1" c4Type="Relationship" c4Technology="WS" c4Description="Sends commands to" label="&lt;div style=&quot;text-align: left&quot;&gt;&lt;div style=&quot;text-align: center&quot;&gt;&lt;b&gt;%c4Description%&lt;/b&gt;&lt;/div&gt;&lt;div style=&quot;text-align: center&quot;&gt;[%c4Technology%]&lt;/div&gt;&lt;/div&gt;" id="3OLluuD3J4w9uFErKVHZ-7">
                    <mxCell style="endArrow=blockThin;html=1;fontSize=10;fontColor=#404040;strokeWidth=1;endFill=1;strokeColor=#828282;elbow=vertical;metaEdit=1;endSize=14;startSize=14;jumpStyle=arc;jumpSize=16;rounded=0;edgeStyle=orthogonalEdgeStyle;exitX=0.5;exitY=1;exitDx=0;exitDy=0;exitPerimeter=0;" edge="1" parent="1" source="3OLluuD3J4w9uFErKVHZ-5" target="3OLluuD3J4w9uFErKVHZ-2">
                        <mxGeometry x="0.0524" width="240" relative="1" as="geometry">
                            <mxPoint x="559" y="789" as="sourcePoint"/>
                            <mxPoint x="799" y="789" as="targetPoint"/>
                            <Array as="points">
                                <mxPoint x="639" y="799"/>
                            </Array>
                            <mxPoint as="offset"/>
                        </mxGeometry>
                    </mxCell>
                </object>
                <object placeholders="1" c4Type="Relationship" c4Technology="HTTP" c4Description="Requests (-merged) audio files" label="&lt;div style=&quot;text-align: left&quot;&gt;&lt;div style=&quot;text-align: center&quot;&gt;&lt;b&gt;%c4Description%&lt;/b&gt;&lt;/div&gt;&lt;div style=&quot;text-align: center&quot;&gt;[%c4Technology%]&lt;/div&gt;&lt;/div&gt;" id="3OLluuD3J4w9uFErKVHZ-8">
                    <mxCell style="endArrow=blockThin;html=1;fontSize=10;fontColor=#404040;strokeWidth=1;endFill=1;strokeColor=#828282;elbow=vertical;metaEdit=1;endSize=14;startSize=14;jumpStyle=arc;jumpSize=16;rounded=0;edgeStyle=orthogonalEdgeStyle;exitX=0;exitY=0.5;exitDx=0;exitDy=0;exitPerimeter=0;" edge="1" parent="1" source="3OLluuD3J4w9uFErKVHZ-5" target="3OLluuD3J4w9uFErKVHZ-3">
                        <mxGeometry width="240" relative="1" as="geometry">
                            <mxPoint x="459" y="739" as="sourcePoint"/>
                            <mxPoint x="699" y="739" as="targetPoint"/>
                            <mxPoint as="offset"/>
                        </mxGeometry>
                    </mxCell>
                </object>
                <object placeholders="1" c4Type="Relationship" c4Technology="HTTP" c4Description="Uploads audio file" label="&lt;div style=&quot;text-align: left&quot;&gt;&lt;div style=&quot;text-align: center&quot;&gt;&lt;b&gt;%c4Description%&lt;/b&gt;&lt;/div&gt;&lt;div style=&quot;text-align: center&quot;&gt;[%c4Technology%]&lt;/div&gt;&lt;/div&gt;" id="3OLluuD3J4w9uFErKVHZ-9">
                    <mxCell style="endArrow=blockThin;html=1;fontSize=10;fontColor=#404040;strokeWidth=1;endFill=1;strokeColor=#828282;elbow=vertical;metaEdit=1;endSize=14;startSize=14;jumpStyle=arc;jumpSize=16;rounded=0;edgeStyle=orthogonalEdgeStyle;entryX=1;entryY=0.25;entryDx=0;entryDy=0;entryPerimeter=0;" edge="1" parent="1" source="3OLluuD3J4w9uFErKVHZ-4" target="3OLluuD3J4w9uFErKVHZ-3">
                        <mxGeometry x="-0.1" width="240" relative="1" as="geometry">
                            <mxPoint x="549" y="649" as="sourcePoint"/>
                            <mxPoint x="229" y="529" as="targetPoint"/>
                            <mxPoint as="offset"/>
                        </mxGeometry>
                    </mxCell>
                </object>
            </root>
        </mxGraphModel>
    </diagram>
</mxfile>